<svg xmlns="http://www.w3.org/2000/svg" viewBox="0 0 64 64" role="img" aria-label="Nihongo Studio">
  <rect width="64" height="64" rx="14" fill="#f7f3eb"/>
  <circle cx="46" cy="18" r="8" fill="#c36f5c"/>
  <path d="M14 17c0-2.2 1.8-4 4-4h13c3.3 0 6 2.7 6 6v31c0 .8-.9 1.3-1.6.9-1.9-1.2-4.1-1.9-6.4-1.9H18c-2.2 0-4-1.8-4-4V17Z" fill="#5f8ea2"/>
  <path d="M37 19c0-3.3 2.7-6 6-6h3.5c.8 1.5 1.3 3.2 1.3 5 0 5.4-4.1 9.8-9.3 10.2V51c0 .8.9 1.3 1.6.9 1.9-1.2 4.1-1.9 6.4-1.9H50c2.2 0 4-1.8 4-4V28.4c-2.2 1.4-4.8 2.2-7.6 2.2-3.6 0-6.9-1.3-9.4-3.5V19Z" fill="#7e9a68"/>
  <path d="M21 24h9M21 31h9M21 38h7" stroke="#f7f3eb" stroke-width="3.5" stroke-linecap="round"/>
  <text x="43" y="44" fill="#f7f3eb" font-family="Yu Gothic, Meiryo, Noto Sans JP, sans-serif" font-size="18" font-weight="700" text-anchor="middle">あ</text>
</svg>
